<?xml version="1.0" encoding="UTF-8" standalone="no"?>
<svg
   xml:space="preserve"
   width="210mm"
   height="210mm"
   version="1.1"
   style="shape-rendering:geometricPrecision; text-rendering:geometricPrecision; image-rendering:optimizeQuality; fill-rule:evenodd; clip-rule:evenodd"
   viewBox="0 0 21000 29700"
   id="svg41"
   sodipodi:docname="logo_blk.svg"
   inkscape:version="1.3 (0e150ed6c4, 2023-07-21)"
   xmlns:inkscape="http://www.inkscape.org/namespaces/inkscape"
   xmlns:sodipodi="http://sodipodi.sourceforge.net/DTD/sodipodi-0.dtd"
   xmlns="http://www.w3.org/2000/svg"
   xmlns:svg="http://www.w3.org/2000/svg">&#10;   <style
   id="style1">&#10;     .fil0 {fill:white} &#10;   </style>&#10;   <defs
   id="defs45" /><sodipodi:namedview
   id="namedview43"
   pagecolor="#ffffff"
   bordercolor="#666666"
   borderopacity="1.0"
   inkscape:pageshadow="2"
   inkscape:pageopacity="0.0"
   inkscape:pagecheckerboard="0"
   inkscape:document-units="mm"
   showgrid="true"
   inkscape:zoom="0.74118967"
   inkscape:cx="429.71457"
   inkscape:cy="561.93444"
   inkscape:window-width="1920"
   inkscape:window-height="1017"
   inkscape:window-x="-8"
   inkscape:window-y="-8"
   inkscape:window-maximized="1"
   inkscape:current-layer="Слой_x0020_1"
   inkscape:showpageshadow="2"
   inkscape:deskcolor="#d1d1d1"><inkscape:grid
     type="xygrid"
     id="grid26"
     originx="0"
     originy="0"
     spacingy="1"
     spacingx="1"
     units="mm"
     visible="true" /></sodipodi:namedview>&#10; <g
   id="Слой_x0020_1"
   inkscape:label="Слой 1"
   inkscape:groupmode="layer">&#10;  <metadata
   id="CorelCorpID_0Corel-Layer" />&#10;  <g
   id="_675296048"
   transform="matrix(2.6064978,0,0,2.6158988,-15562.372,-12118.609)"
   style="fill:#000000">&#10;   <path
   class="fil0"
   d="m 6382,7762 -177,-74 c -37,-23 -111,-70 -156,-74 3,53 59,135 84,173 -76,-2 -76,-37 -143,-40 4,71 52,126 93,174 -24,43 -49,95 -50,162 l -6,479 c -1,68 67,-8 77,-47 84,57 64,183 74,316 4,59 7,110 6,183 -1,77 8,125 8,191 -2,119 49,233 156,226 133,-7 119,-170 207,-192 34,25 35,96 95,97 36,0 58,-48 67,-77 17,-50 6,-83 16,-139 l 54,-245 c 18,-126 103,-247 209,-309 30,-17 22,-11 66,-10 6,28 16,44 26,68 l 153,371 c 87,192 158,394 242,587 53,121 54,222 3,340 -64,152 -53,174 -30,329 27,176 96,409 94,571 0,59 -521,166 -628,209 -216,87 -11,478 36,596 24,61 49,115 69,188 70,258 2,278 300,483 54,37 277,181 346,182 27,0 78,-50 78,-75 1,-87 -21,-153 -68,-218 -117,-161 -202,-83 -244,-83 -51,-1 -21,-85 -63,-129 -65,-68 -116,-73 -167,-168 -54,-100 -108,-275 -135,-397 l 77,-57 c 55,-35 109,-73 178,-89 229,-54 537,-55 782,-52 53,1 67,38 73,80 26,180 0,927 -3,1156 -1,133 -23,225 -42,335 -32,180 -24,128 -99,276 -24,46 -43,70 -71,113 -67,105 -173,258 -175,392 -1,66 226,74 311,-79 55,-99 24,-243 99,-257 97,-19 114,-8 114,-242 1,-210 30,-443 83,-642 78,-295 135,-591 199,-892 26,-123 38,-251 74,-370 19,-60 81,-54 196,-71 49,-8 99,-13 152,-18 164,-17 336,-18 502,-39 107,-13 233,2 341,-9 515,-50 714,-233 819,-256 48,74 82,138 122,221 l 223,473 c 132,310 118,297 -152,512 -178,143 -358,176 -366,362 -3,77 -28,143 -38,213 -11,71 -46,258 -28,324 22,80 36,76 106,76 163,2 344,-218 251,-405 -73,-148 -121,-134 19,-269 l 209,-173 c 102,-74 570,-339 571,-404 2,-113 -215,-385 -212,-615 0,-57 15,-163 69,-162 33,0 455,452 484,482 43,44 80,72 123,117 44,44 70,82 114,126 142,144 147,254 145,454 -3,216 -116,436 -228,601 l -131,176 c -22,31 -26,23 -44,61 -5,9 -9,22 -15,33 l -57,106 c -57,112 31,100 117,101 161,2 316,-105 319,-274 2,-69 -13,-81 47,-98 131,-35 113,-125 141,-311 40,-261 63,-532 103,-796 13,-82 48,-168 1,-234 l -257,-335 c -101,-122 -189,-243 -176,-408 20,-239 281,-573 286,-938 4,-376 -159,-609 -162,-655 -3,-58 93,-131 152,-131 138,2 347,190 435,314 l 431,478 c 36,29 45,46 84,70 31,19 71,37 95,59 l 146,160 c 24,28 52,52 97,56 1,-36 -11,-124 16,-139 53,-29 145,206 223,228 6,-26 16,-125 23,-142 20,-48 48,7 113,10 16,-66 42,-86 55,-166 24,-144 32,-358 -16,-488 -15,-41 -19,-75 -35,-117 -17,-45 -34,-73 -50,-112 -57,-146 -108,-311 -177,-451 -46,-95 -52,-116 -125,-191 -51,-53 -100,-114 -160,-156 -93,-65 -323,-168 -475,-170 -120,-2 -240,55 -329,119 -158,113 -292,258 -445,377 -16,13 -24,22 -39,37 -25,24 -58,49 -85,68 -83,63 -87,76 -231,74 -60,-1 -80,9 -144,8 -63,0 -82,-11 -143,-11 -98,-2 -178,-22 -287,-23 -272,-4 -555,6 -809,82 -74,22 -111,49 -170,78 -307,155 -753,345 -1090,136 -27,-17 -57,-36 -81,-54 -363,-259 -512,-425 -829,-751 -87,-90 -185,-165 -275,-253 -147,-143 -457,-336 -652,-404 -357,-125 -627,-101 -967,39 l -105,58 c -21,13 -11,20 -37,20 z"
   id="path3"
   style="fill:#000000" />&#10;   <path
   class="fil0"
   d="m 11467,14692 c 38,-3 60,-16 88,-26 30,-11 63,-22 95,-29 4,60 151,421 175,529 -68,5 -163,59 -231,73 3,-220 -116,-454 -127,-547 z m -296,-90 c 44,94 194,563 194,625 -2,108 -69,113 -107,133 l 89,262 c 13,33 23,59 31,94 34,-3 144,-42 173,-56 -3,-34 -18,-69 -27,-97 -10,-32 -26,-63 -28,-95 l 567,-194 65,183 c 63,-14 114,-42 173,-55 -3,-38 -43,-141 -58,-180 l -62,-186 c -40,19 -84,25 -125,46 l -210,-608 c -13,-34 -23,-59 -30,-94 z"
   id="path5"
   style="fill:#000000" />&#10;   <path
   class="fil0"
   d="m 10467,5811 268,51 c 7,-27 29,-46 47,-67 l 169,-205 c 38,-46 68,-88 107,-133 26,-31 89,-117 114,-135 l -122,602 c 73,7 149,40 229,41 l 91,-450 c 18,-105 82,-374 83,-458 -33,0 -239,-42 -258,-51 -50,73 -410,513 -437,531 1,-45 17,-101 26,-147 l 86,-445 c -72,-7 -149,-41 -229,-42 l -132,680 c -7,44 -14,72 -21,113 -7,38 -20,76 -21,115 z"
   id="path7"
   style="fill:#000000" />&#10;   <path
   class="fil0"
   d="m 12521,6191 z m 0,0 c 9,-31 309,-469 332,-503 -51,-28 -141,-104 -190,-118 -27,20 -105,145 -132,185 -46,66 -82,123 -127,189 l -258,386 c 27,18 212,148 228,147 49,-26 97,-55 148,-82 l 460,-246 c -10,34 -60,96 -83,129 -31,46 -56,81 -84,127 -32,53 -154,209 -165,257 16,23 156,119 189,127 l 252,-382 c 45,-66 84,-122 127,-190 28,-43 118,-159 129,-198 -237,-129 -177,-176 -294,-107 l -210,114 c -61,30 -281,156 -322,165 z"
   id="path9"
   style="fill:#000000" />&#10;   <path
   class="fil0"
   d="m 14948,12035 c -62,-16 -170,-65 -229,-70 23,-47 69,-338 243,-209 87,65 -7,202 -14,279 z m -382,-130 c -32,-3 -154,-46 -181,-59 39,-79 31,-201 137,-200 166,2 57,208 44,259 z m -413,120 c 41,20 833,287 878,288 35,-142 158,-427 160,-553 2,-169 -115,-260 -284,-262 -96,-1 -111,61 -164,74 -1,-148 -324,-334 -467,75 -23,65 -45,123 -63,187 -15,53 -55,140 -60,191 z"
   id="path11"
   style="fill:#000000" />&#10;   <path
   class="fil0"
   d="m 8443,15258 c -83,-1 -133,-44 -200,-51 13,-54 65,-180 70,-229 65,33 238,49 237,147 -1,69 -38,133 -107,133 z m 120,-392 c -133,-1 -112,-33 -191,-40 7,-70 44,-120 50,-182 37,4 210,45 209,127 0,41 -31,96 -68,95 z m -599,424 c 203,50 536,231 703,120 88,-58 111,-142 113,-244 1,-92 -52,-113 -85,-164 130,-1 174,-119 176,-237 2,-170 -285,-251 -435,-295 -55,-16 -131,-52 -193,-58 -6,60 -272,802 -279,878 z"
   id="path13"
   style="fill:#000000" />&#10;   <path
   class="fil0"
   d="m 7224,6278 c 65,-42 137,-103 212,-103 60,1 185,122 30,225 -37,25 -78,62 -120,71 -39,-60 -89,-129 -122,-193 z m 262,-284 z m -459,-15 c 47,-12 87,-64 146,-84 82,-28 199,83 54,182 -33,22 -64,44 -97,66 l -92,-137 c -9,-17 -8,-22 -11,-27 z m 459,15 c 24,-98 51,-148 -56,-257 -203,-207 -576,207 -700,238 l 507,773 c 30,-8 200,-126 240,-153 165,-106 378,-238 270,-457 -64,-129 -143,-142 -261,-144 z"
   id="path15"
   style="fill:#000000" />&#10;   <path
   class="fil0"
   d="m 5227,12047 c -87,-1 -158,-14 -200,-98 -133,-265 192,-381 350,-379 207,3 312,273 93,406 -58,35 -153,72 -243,71 z m -417,-330 c -2,177 11,271 124,427 227,312 837,93 841,-253 2,-154 -26,-307 -122,-411 -78,-86 -160,-153 -311,-154 -137,-1 -257,44 -349,103 -48,32 -83,66 -116,114 -27,39 -66,112 -67,174 z"
   id="path17"
   style="fill:#000000" />&#10;   <path
   class="fil0"
   d="m 10030,15507 h -58 c -114,-2 -189,-135 -188,-252 1,-115 -2,-290 146,-335 112,-34 201,4 256,85 45,69 53,211 35,311 -15,91 -81,193 -191,191 z m -50,182 c 573,7 587,-576 390,-816 -123,-152 -402,-177 -586,-102 -105,42 -184,131 -223,237 -13,37 -37,159 -34,204 20,292 165,473 453,477 z"
   id="path19"
   style="fill:#000000" />&#10;   <path
   class="fil0"
   d="m 9108,4951 c 1,79 62,264 63,346 -48,3 -115,21 -167,32 -48,11 -121,30 -169,31 -1,-51 -62,-283 -63,-336 -59,0 -181,32 -240,45 6,80 180,842 180,902 60,0 182,-32 240,-45 -6,-92 -72,-299 -71,-384 48,-3 115,-21 167,-32 50,-11 117,-31 169,-31 0,52 24,137 33,185 l 38,190 c 60,-1 182,-32 240,-45 l -180,-903 c -47,0 -77,12 -122,20 -34,7 -80,17 -118,25 z"
   id="path21"
   style="fill:#000000" />&#10;   <path
   class="fil0"
   d="m 5433,13180 c 10,44 94,136 132,193 51,-11 246,-178 319,-226 40,62 173,215 207,281 -30,7 -56,34 -80,53 l -229,173 c 44,67 97,125 141,193 37,-19 55,-38 90,-63 l 277,-210 c 62,-46 122,-94 185,-140 34,-25 58,-45 93,-70 24,-17 75,-54 90,-73 -13,-50 -118,-138 -132,-193 -26,7 -236,170 -280,207 -31,-21 -199,-239 -208,-271 17,-23 37,-34 63,-52 l 208,-155 c -18,-35 -122,-174 -151,-193 -161,105 -545,429 -725,546 z"
   id="path23"
   style="fill:#000000" />&#10;   <path
   class="fil0"
   d="m 4584,9827 -3,239 c 236,3 282,-33 382,120 l -386,273 -4,259 c 45,-4 13,2 42,-16 l 518,-361 369,369 c 5,-366 32,-233 -112,-382 -43,-45 -80,-82 -123,-126 -22,-22 -39,-43 -62,-63 -31,-29 -43,-28 -68,-66 88,-19 265,-6 364,-5 l 3,-239 -776,-10 c -63,-1 -83,9 -144,8 z"
   id="path25"
   style="fill:#000000" />&#10;   <path
   class="fil0"
   d="m 14730,10308 c 86,-19 299,-100 346,-110 l -3,239 z m -228,-146 -4,296 795,304 c 45,16 77,33 120,43 l 3,-239 c -37,-20 -116,-49 -162,-60 l 5,-373 c 52,-12 112,-42 163,-46 l 3,-249 c -30,7 -79,27 -112,40 z"
   id="path27"
   style="fill:#000000" />&#10;   <path
   class="fil0"
   d="m 6614,14488 c 22,30 507,371 541,380 10,-37 62,-87 98,-152 -57,-31 -295,-214 -333,-224 6,-61 92,-124 108,-181 42,29 278,210 323,215 7,-26 28,-46 45,-71 18,-25 35,-42 43,-72 -20,-27 -250,-184 -294,-214 8,-36 23,-45 43,-72 18,-26 31,-45 45,-71 111,77 220,157 332,234 17,-32 30,-43 51,-74 19,-27 43,-50 47,-87 -30,-9 -43,-24 -65,-41 -23,-18 -45,-32 -68,-47 l -389,-273 c -19,34 -39,56 -63,91 l -263,370 c -25,35 -41,62 -67,96 -26,34 -44,61 -68,96 -23,35 -47,62 -66,97 z"
   id="path29"
   style="fill:#000000" />&#10;   <path
   class="fil0"
   d="m 12585,14131 c -3,222 218,491 434,494 151,2 254,-18 373,-122 21,-18 36,-26 53,-43 14,-13 34,-41 48,-57 39,-48 48,-72 77,-125 -20,-30 -99,-138 -123,-155 -11,46 -22,72 -45,109 -38,63 -88,117 -154,153 -135,75 -245,9 -333,-84 -23,-25 -50,-65 -66,-96 -120,-227 115,-418 334,-421 -9,-37 -30,-52 -52,-81 -10,-12 -53,-73 -61,-73 -72,-1 -195,63 -255,107 -82,62 -127,102 -177,197 -29,57 -52,114 -53,197 z"
   id="path31"
   style="fill:#000000" />&#10;   <path
   class="fil0"
   d="m 13410,13222 c 37,11 87,62 152,98 30,-43 143,-216 176,-237 33,9 111,72 150,99 l 301,217 c 34,25 121,94 156,103 14,-47 113,-140 127,-199 l -588,-420 c 10,-42 55,-90 82,-129 25,-38 72,-86 84,-127 -30,-21 -115,-90 -143,-98 -30,20 -215,290 -253,342 -42,57 -79,115 -124,173 -24,32 -112,150 -120,178 z"
   id="path33"
   style="fill:#000000" />&#10;   <path
   class="fil0"
   d="m 5210,8025 c -1,66 14,174 26,230 -67,-16 -133,-63 -200,-70 -16,32 -22,63 -40,96 60,29 133,47 191,79 -12,17 -60,55 -82,71 -40,31 -48,48 -92,70 l 66,87 c 52,-34 133,-131 174,-141 0,39 12,108 15,146 9,110 -13,64 107,66 0,-48 -13,-203 -26,-230 55,5 151,65 200,69 7,-27 27,-72 40,-95 -57,-31 -144,-56 -191,-79 l 81,-73 c 32,-26 58,-50 93,-68 -38,-75 -43,-36 -56,-87 -42,10 -140,112 -184,141 1,-44 -11,-115 -15,-156 -9,-106 -16,-55 -107,-56 z"
   id="path35"
   style="fill:#000000" />&#10;   <path
   class="fil0"
   d="m 14717,8316 -171,-146 c -18,12 -55,57 -68,76 28,39 142,111 171,155 -62,14 -140,61 -193,65 9,38 29,68 37,106 54,-12 157,-51 202,-74 -9,36 -15,86 -20,125 -16,122 -36,113 94,115 1,-79 21,-150 22,-220 l 83,70 c 26,25 60,57 87,76 12,-9 59,-62 68,-76 -20,-14 -21,-19 -41,-36 -19,-17 -27,-21 -46,-39 -35,-32 -58,-41 -83,-80 65,-15 122,-52 183,-65 -1,-48 -18,-61 -28,-106 -33,3 -173,59 -202,74 3,-70 29,-159 32,-229 l -105,-11 c -1,70 -21,141 -22,220 z"
   id="path37"
   style="fill:#000000" />&#10;  </g>&#10; </g>&#10;</svg>
